<svg width="343" height="67" viewBox="0 0 343 67" fill="none" xmlns="http://www.w3.org/2000/svg">
<path d="M0.98 33.51C0.98 29.61 1.7 25.8 3.14 22.08C4.64 18.3 6.8 14.88 9.62 11.82C12.44 8.75999 15.86 6.33 19.88 4.53C23.96 2.67 28.55 1.74 33.65 1.74C39.77 1.74 45.11 3.03 49.67 5.61C54.23 8.13 57.62 11.49 59.84 15.69L46.43 25.23C45.65 23.13 44.51 21.51 43.01 20.37C41.57 19.23 39.98 18.45 38.24 18.03C36.56 17.55 34.91 17.31 33.29 17.31C29.93 17.31 27.17 18.15 25.01 19.83C22.91 21.51 21.35 23.64 20.33 26.22C19.31 28.74 18.8 31.35 18.8 34.05C18.8 36.99 19.37 39.75 20.51 42.33C21.71 44.91 23.39 47.01 25.55 48.63C27.77 50.19 30.41 50.97 33.47 50.97C35.09 50.97 36.74 50.73 38.42 50.25C40.1 49.71 41.63 48.87 43.01 47.73C44.39 46.59 45.44 45.06 46.16 43.14L60.47 51.69C59.21 54.81 57.11 57.48 54.17 59.7C51.23 61.92 47.9 63.63 44.18 64.83C40.46 65.97 36.77 66.54 33.11 66.54C28.37 66.54 24.02 65.61 20.06 63.75C16.16 61.83 12.77 59.31 9.89 56.19C7.07 53.01 4.88 49.47 3.32 45.57C1.76 41.61 0.98 37.59 0.98 33.51ZM113.157 66H96.0566V39.36C96.0566 37.02 95.5166 35.34 94.4366 34.32C93.4166 33.24 92.1266 32.7 90.5666 32.7C89.4266 32.7 88.0166 33.3 86.3366 34.5C84.7166 35.7 83.4866 37.35 82.6466 39.45V66H65.5466V0.299998H82.6466V25.68C84.3266 23.1 86.5166 21.15 89.2166 19.83C91.9766 18.45 95.0066 17.76 98.3066 17.76C101.667 17.76 104.337 18.33 106.317 19.47C108.297 20.55 109.767 21.96 110.727 23.7C111.687 25.44 112.317 27.3 112.617 29.28C112.977 31.26 113.157 33.12 113.157 34.86V66ZM121.445 14.7V0.299998H138.545V14.7H121.445ZM121.445 66V18.66H138.545V66H121.445ZM194.807 66H177.707V39.36C177.707 37.02 177.167 35.34 176.087 34.32C175.067 33.24 173.867 32.7 172.487 32.7C171.047 32.7 169.517 33.33 167.897 34.59C166.277 35.85 165.077 37.47 164.297 39.45V66H147.197V18.66H162.587V25.68C164.267 23.1 166.637 21.15 169.697 19.83C172.757 18.45 176.327 17.76 180.407 17.76C183.647 17.76 186.227 18.33 188.147 19.47C190.067 20.61 191.507 22.08 192.467 23.88C193.427 25.68 194.057 27.57 194.357 29.55C194.657 31.47 194.807 33.24 194.807 34.86V66ZM236.305 63.39C233.905 64.41 231.325 65.28 228.565 66C225.865 66.66 223.195 66.99 220.555 66.99C217.975 66.99 215.605 66.57 213.445 65.73C211.285 64.83 209.545 63.39 208.225 61.41C206.965 59.37 206.335 56.64 206.335 53.22V31.53H200.485V18.66H206.335V3.81H223.435V18.66H232.705V31.53H223.435V47.19C223.435 48.75 223.765 49.86 224.425 50.52C225.085 51.12 225.985 51.42 227.125 51.42C227.965 51.42 228.925 51.27 230.005 50.97C231.085 50.67 232.165 50.31 233.245 49.89L236.305 63.39ZM238.542 51.69C238.542 48.51 239.412 45.72 241.152 43.32C242.892 40.86 245.292 38.94 248.352 37.56C251.472 36.18 255.012 35.49 258.972 35.49C262.812 35.49 265.992 36.09 268.512 37.29V35.85C268.512 33.63 267.852 31.98 266.532 30.9C265.272 29.82 263.202 29.28 260.322 29.28C257.682 29.28 255.192 29.73 252.852 30.63C250.572 31.47 248.172 32.73 245.652 34.41L240.702 23.79C246.942 19.77 254.052 17.76 262.032 17.76C269.532 17.76 275.322 19.47 279.402 22.89C283.542 26.25 285.612 31.26 285.612 37.92V47.1C285.612 48.72 285.852 49.86 286.332 50.52C286.812 51.12 287.652 51.48 288.852 51.6V66C287.472 66.3 286.152 66.51 284.892 66.63C283.692 66.81 282.612 66.9 281.652 66.9C278.592 66.9 276.252 66.36 274.632 65.28C273.072 64.14 272.052 62.49 271.572 60.33L271.212 58.62C266.892 64.14 261.522 66.9 255.102 66.9C251.982 66.9 249.162 66.24 246.642 64.92C244.122 63.6 242.142 61.8 240.702 59.52C239.262 57.18 238.542 54.57 238.542 51.69ZM266.262 52.86C267.762 51.84 268.512 50.73 268.512 49.53V46.02C267.552 45.66 266.442 45.36 265.182 45.12C263.982 44.88 262.902 44.76 261.942 44.76C259.902 44.76 258.162 45.27 256.722 46.29C255.342 47.31 254.652 48.6 254.652 50.16C254.652 51.48 255.162 52.56 256.182 53.4C257.262 54.24 258.612 54.66 260.232 54.66C262.452 54.66 264.462 54.06 266.262 52.86ZM342.639 66H325.539V39.36C325.539 37.02 324.999 35.34 323.919 34.32C322.899 33.24 321.699 32.7 320.319 32.7C318.879 32.7 317.349 33.33 315.729 34.59C314.109 35.85 312.909 37.47 312.129 39.45V66H295.029V18.66H310.419V25.68C312.099 23.1 314.469 21.15 317.529 19.83C320.589 18.45 324.159 17.76 328.239 17.76C331.479 17.76 334.059 18.33 335.979 19.47C337.899 20.61 339.339 22.08 340.299 23.88C341.259 25.68 341.889 27.57 342.189 29.55C342.489 31.47 342.639 33.24 342.639 34.86V66Z" fill="white"/>
</svg>
